<?xml version="1.0" encoding="UTF-8" standalone="no"?><!-- Generator: Gravit.io --><svg xmlns="http://www.w3.org/2000/svg" xmlns:xlink="http://www.w3.org/1999/xlink" style="isolation:isolate" viewBox="0 0 400 144.673" width="400pt" height="144.673pt"><defs><clipPath id="_clipPath_55V26wjK7LnX4XFy9OG0eLfH0ROMqcUu"><rect width="400" height="144.673"/></clipPath></defs><g clip-path="url(#_clipPath_55V26wjK7LnX4XFy9OG0eLfH0ROMqcUu)"><path d=" M 273.59 3.474 C 272.8 3.761 270.725 5.802 270.725 6.293 C 270.725 6.526 270.468 6.93 270.153 7.191 C 269.838 7.453 268.872 8.751 268.006 10.077 C 267.141 11.404 266.26 12.595 266.05 12.725 C 265.354 13.155 264.991 14.709 265.234 16.226 C 265.752 19.467 269.012 20.836 271.021 18.657 C 273.048 16.459 274.306 14.57 274.306 13.726 C 274.306 13.243 274.951 11.479 275.739 9.805 C 278.016 4.966 277.081 2.209 273.59 3.474 Z  M 351.638 12.673 C 348.599 14.738 346.564 17.978 346.554 20.77 C 346.537 25.7 346.623 25.879 350.367 28.678 C 352.97 30.625 357.665 29.244 359.416 26.017 C 362.049 21.165 361.625 18.045 357.837 14.406 C 354.892 11.575 353.731 11.251 351.638 12.673 Z  M 103.312 20.813 C 101.466 21.556 98.836 23.783 98.836 24.603 C 98.836 24.858 98.665 25.067 98.456 25.067 C 98.247 25.067 97.086 26.051 95.876 27.254 C 94.666 28.456 93.151 29.84 92.51 30.329 C 91.869 30.818 91.251 31.513 91.136 31.873 C 91.022 32.233 90.426 32.703 89.812 32.917 C 88.435 33.397 79.667 42.284 78.834 44.044 C 78.496 44.758 77.754 45.526 77.106 45.834 C 75.072 46.801 69.17 52.064 68.382 53.615 C 67.675 55.005 64.871 57.654 64.107 57.654 C 63.757 57.654 63.287 57.877 63.062 58.148 C 62.836 58.42 62.204 58.732 61.656 58.841 C 60.727 59.027 55.864 63.502 55.864 64.172 C 55.864 64.329 55.421 64.459 54.879 64.459 C 54.338 64.459 53.415 64.872 52.829 65.376 C 52.243 65.88 51.236 66.542 50.591 66.848 C 49.946 67.154 49.418 67.534 49.418 67.691 C 49.418 68.148 46.186 69.83 45.308 69.83 C 44.87 69.83 44.026 70.294 43.433 70.86 C 42.84 71.427 41.771 72.083 41.057 72.319 C 40.343 72.554 39.677 72.879 39.577 73.041 C 39.477 73.203 38.146 73.933 36.618 74.664 C 35.091 75.394 33.599 76.184 33.303 76.418 C 33.008 76.652 32.122 77.061 31.334 77.327 C 30.546 77.592 29.454 78.183 28.908 78.639 C 28.361 79.095 27.017 79.75 25.922 80.096 C 24.753 80.464 23.597 81.119 23.124 81.681 C 22.601 82.302 21.796 82.727 20.834 82.89 C 19.844 83.057 19.066 83.478 18.498 84.153 C 18.029 84.711 16.777 85.606 15.716 86.142 C 14.655 86.679 13.226 87.579 12.542 88.143 C 11.857 88.706 11.123 89.167 10.911 89.167 C 9.703 89.167 7.261 91.283 7.063 92.501 C 6.667 94.944 8.194 96.594 9.971 95.643 C 10.37 95.43 11.41 95.255 12.283 95.255 C 13.327 95.255 14.181 95.01 14.78 94.539 C 15.281 94.145 15.913 93.823 16.185 93.823 C 16.457 93.823 17.268 93.523 17.988 93.156 C 18.708 92.789 19.91 92.388 20.66 92.266 C 21.41 92.144 23.232 91.449 24.709 90.722 C 26.186 89.996 27.637 89.362 27.932 89.314 C 28.227 89.266 29.114 88.979 29.902 88.676 C 30.689 88.372 31.591 88.117 31.905 88.109 C 32.219 88.1 32.769 87.769 33.127 87.374 C 33.485 86.978 34.437 86.467 35.242 86.239 C 36.047 86.01 37.028 85.554 37.422 85.225 C 38.687 84.17 40.709 83.08 41.403 83.079 C 42.672 83.079 46.016 81.595 47.107 80.546 C 47.771 79.91 48.583 79.499 49.178 79.499 C 50.687 79.499 52.488 78.603 53.366 77.415 C 53.803 76.824 54.867 76.07 55.729 75.741 C 56.592 75.411 57.499 74.858 57.745 74.512 C 58.282 73.755 59.782 72.912 60.072 73.203 C 60.187 73.317 60.098 73.411 59.875 73.411 C 59.222 73.411 56.951 75.57 56.334 76.777 C 56.022 77.387 55.224 78.492 54.562 79.231 C 53.899 79.97 53.357 80.732 53.357 80.925 C 53.357 81.117 52.707 81.606 51.913 82.012 C 50.948 82.504 50.267 83.191 49.864 84.078 C 49.532 84.809 48.482 86.294 47.53 87.377 C 46.579 88.46 45.285 89.948 44.655 90.684 C 44.025 91.419 42.817 92.699 41.971 93.529 C 40.549 94.924 38.688 97.977 38.665 98.955 C 38.653 99.489 36.423 101.898 35.469 102.408 C 35.07 102.622 34.478 103.309 34.154 103.936 C 33.83 104.563 33.205 105.359 32.766 105.704 C 32.327 106.05 31.754 106.861 31.492 107.508 C 31.23 108.155 30.523 109.429 29.922 110.339 C 29.32 111.249 28.555 112.495 28.221 113.107 C 27.888 113.719 27.103 114.531 26.476 114.913 C 25.162 115.712 24.002 117.315 23.987 118.353 C 23.982 118.747 23.662 119.472 23.277 119.964 C 22.891 120.457 22.573 121.117 22.568 121.433 C 22.564 121.748 21.714 123.093 20.68 124.422 C 14.624 132.204 14.456 138.221 20.295 138.226 C 21.928 138.228 23.323 137.168 24.342 135.154 C 24.632 134.579 25.237 133.654 25.685 133.097 C 26.133 132.54 26.5 131.888 26.5 131.648 C 26.5 131.407 27.144 130.581 27.932 129.812 C 28.72 129.043 29.364 128.204 29.364 127.949 C 29.364 127.693 29.528 127.484 29.728 127.484 C 29.928 127.484 30.357 126.929 30.681 126.249 C 31.181 125.201 31.373 125.069 31.95 125.378 C 32.865 125.868 34.635 125.458 36.209 124.392 C 36.921 123.91 37.968 123.432 38.537 123.33 C 39.895 123.087 41.182 122.23 41.182 121.567 C 41.182 121.259 41.518 121.037 41.987 121.034 C 42.431 121.031 43.76 120.526 44.942 119.912 C 46.124 119.297 47.724 118.475 48.499 118.086 C 49.274 117.696 50.135 117.149 50.414 116.871 C 50.692 116.592 51.924 115.895 53.151 115.322 C 54.378 114.748 55.585 114.034 55.833 113.735 C 56.132 113.374 56.626 113.259 57.3 113.394 C 58.469 113.628 61.743 112.232 62.822 111.039 C 63.192 110.63 63.741 110.295 64.041 110.295 C 64.341 110.295 65.081 110.145 65.686 109.962 C 66.291 109.778 67.481 109.427 68.331 109.181 C 69.186 108.933 70.254 108.283 70.725 107.724 C 71.281 107.063 71.923 106.712 72.582 106.706 C 73.136 106.702 73.993 106.383 74.485 105.998 C 74.978 105.613 75.57 105.294 75.801 105.29 C 76.032 105.286 76.7 104.879 77.285 104.387 C 77.87 103.894 78.656 103.491 79.031 103.491 C 79.406 103.491 79.867 103.346 80.054 103.167 C 80.601 102.645 83.065 101.343 83.504 101.343 C 83.726 101.343 84.406 100.967 85.015 100.507 C 86.869 99.11 90.193 97.426 91.966 96.986 C 92.889 96.757 94.02 96.327 94.481 96.03 L 95.318 95.49 L 95.087 97.074 C 94.747 99.41 96.184 105.377 97.897 108.736 C 98.413 109.749 98.836 110.934 98.836 111.368 C 98.836 111.802 99.4 112.722 100.09 113.411 C 100.779 114.1 101.343 114.895 101.343 115.176 C 101.343 115.457 102.39 116.756 103.671 118.062 C 104.951 119.367 105.998 120.727 105.998 121.083 C 105.998 121.991 108.366 124.26 109.323 124.269 C 109.759 124.274 110.519 124.592 111.012 124.978 C 111.504 125.363 112.051 125.681 112.228 125.686 C 112.405 125.69 113.238 126.258 114.079 126.947 C 114.92 127.637 115.832 128.201 116.105 128.201 C 116.379 128.201 117.125 128.586 117.764 129.058 C 118.403 129.529 119.632 130.021 120.494 130.15 C 121.356 130.28 123 130.72 124.146 131.129 C 128.397 132.647 140.34 133.528 141.705 132.425 C 141.99 132.195 142.55 132.211 143.338 132.471 C 144.151 132.739 144.875 132.753 145.59 132.516 C 146.169 132.323 148.37 132.113 150.481 132.049 C 153.673 131.953 154.487 131.809 155.315 131.198 C 156.022 130.677 157.281 130.356 159.648 130.092 C 162.396 129.786 163.154 129.564 163.945 128.834 C 164.943 127.913 166.856 127.314 169.916 126.963 C 172.174 126.704 177.997 123.871 179.193 122.45 C 179.68 121.87 180.422 121.397 180.842 121.397 C 181.757 121.397 182.814 120.87 184.181 119.732 C 184.851 119.175 185.652 118.89 186.546 118.89 C 187.41 118.89 188.337 118.574 189.114 118.013 C 189.784 117.531 191.862 116.395 193.733 115.489 C 195.604 114.582 197.297 113.647 197.494 113.411 C 198.091 112.697 199.919 111.809 201.34 111.542 C 202.205 111.38 203.048 110.873 203.716 110.112 C 204.285 109.463 205.133 108.73 205.599 108.483 C 206.831 107.828 211.217 104.172 211.428 103.624 C 211.526 103.366 212.138 102.926 212.787 102.644 C 215.17 101.61 218.717 98.242 218.965 96.776 C 219.12 95.86 219.742 94.84 220.924 93.561 C 223.145 91.16 223.539 89.151 222.508 85.491 C 221.82 83.052 217.854 83.072 216.438 85.521 C 215.352 87.399 214.195 88.496 211.206 90.484 C 210.082 91.232 208.982 92.18 208.761 92.592 C 208.541 93.004 207.809 93.54 207.135 93.784 C 206.462 94.027 205.502 94.762 205.003 95.416 C 204.504 96.071 203.416 97.062 202.585 97.621 C 201.754 98.179 200.327 99.244 199.413 99.989 C 198.5 100.734 197.638 101.343 197.499 101.343 C 197.36 101.343 196.74 101.705 196.121 102.149 C 195.503 102.592 194.672 103.127 194.275 103.338 C 192.404 104.335 192.055 104.514 191.094 104.965 C 190.529 105.231 189.724 105.811 189.304 106.254 C 188.884 106.698 188.11 107.063 187.583 107.066 C 187.057 107.07 186.147 107.475 185.562 107.968 C 184.977 108.46 184.356 108.863 184.182 108.863 C 184.008 108.863 182.651 109.484 181.167 110.243 C 179.683 111.002 177.9 111.73 177.206 111.86 C 176.511 111.99 175.567 112.497 175.107 112.987 C 174.647 113.476 173.9 113.876 173.446 113.876 C 172.992 113.876 171.721 114.363 170.622 114.958 C 169.522 115.553 168.474 115.948 168.292 115.836 C 167.649 115.439 165.43 116.117 164.636 116.954 C 164.194 117.421 163.545 117.806 163.194 117.809 C 162.843 117.813 161.956 118.073 161.224 118.388 C 160.492 118.703 159.28 119.013 158.531 119.076 C 157.782 119.14 156.976 119.344 156.74 119.53 C 155.939 120.162 151.362 120.98 147.486 121.183 C 146.177 121.252 144.926 121.42 144.704 121.557 C 143.985 122.001 140.611 122.092 139.086 121.708 C 137.924 121.416 137.103 121.46 135.351 121.909 C 133.49 122.385 133.008 122.404 132.533 122.014 C 131.288 120.993 130.007 120.584 128.711 120.794 C 127.869 120.931 127.025 120.819 126.381 120.486 C 125.826 120.199 124.832 119.964 124.172 119.964 C 123.512 119.964 122.813 119.805 122.618 119.61 C 122.423 119.414 121.464 119.149 120.487 119.019 C 118.845 118.8 117.328 117.869 114.738 115.49 C 114.523 115.292 113.637 114.478 112.769 113.682 C 111.901 112.885 110.983 111.838 110.729 111.354 C 109.744 109.477 109.278 108.783 108.371 107.836 C 107.854 107.296 107.431 106.536 107.431 106.148 C 107.431 105.759 107.153 105.045 106.813 104.56 C 106.473 104.075 106.238 103.35 106.291 102.948 C 106.344 102.547 106.121 101.582 105.795 100.804 C 105.47 100.026 105.16 98.397 105.106 97.186 C 105.052 95.974 104.853 94.708 104.665 94.372 C 103.781 92.792 105.171 90.289 107.473 89.317 C 108.186 89.016 109.115 88.371 109.539 87.884 C 109.962 87.397 110.788 86.902 111.373 86.785 C 113.139 86.432 115.667 83.616 115.667 82.003 C 115.667 79.489 113.483 77.708 110.4 77.708 L 107.915 77.708 L 108.252 75.291 C 108.438 73.962 108.78 72.632 109.012 72.337 C 109.243 72.041 109.733 70.913 110.1 69.83 C 110.467 68.747 110.984 67.542 111.248 67.154 C 111.512 66.765 111.728 66.053 111.728 65.571 C 111.728 65.088 111.975 64.42 112.278 64.086 C 112.58 63.752 113.024 62.523 113.263 61.355 C 113.502 60.188 113.955 58.837 114.269 58.354 C 114.839 57.477 115.107 56.594 115.619 53.894 C 115.769 53.107 116.157 51.979 116.483 51.388 C 118.149 48.358 118.266 47.913 117.795 46.391 C 117.548 45.594 117.382 44.353 117.426 43.633 C 117.752 38.36 109.417 34.355 105.31 37.811 C 102.714 39.996 104.456 37.304 107.453 34.502 C 108.422 33.595 109.433 32.431 109.701 31.915 C 109.969 31.398 110.481 30.412 110.841 29.722 C 112.304 26.916 112.444 26.507 112.444 25.046 C 112.444 20.988 107.999 18.928 103.312 20.813 Z  M 377.798 24.254 C 377.502 24.366 377.18 24.563 377.081 24.69 C 376.983 24.818 376.097 25.388 375.112 25.957 C 366.723 30.804 370.277 42.94 379.098 39.571 C 380.38 39.082 382.453 37.091 382.453 36.35 C 382.453 36.227 382.938 35.523 383.53 34.786 C 386.353 31.273 381.72 22.761 377.798 24.254 Z  M 327.395 25.063 C 326.755 25.454 326.23 25.896 326.229 26.047 C 326.227 26.197 325.745 26.594 325.157 26.929 C 321.622 28.94 321.468 38.312 324.933 40.582 C 327.189 42.06 333.035 40.8 333.035 38.836 C 333.035 38.55 333.166 38.317 333.327 38.317 C 334.057 38.317 335.234 35.313 335.527 32.701 C 335.962 28.82 335.206 27.526 331.329 25.515 C 328.685 24.143 328.869 24.164 327.395 25.063 Z  M 290.421 32.945 C 289.725 33.326 288.442 33.638 287.538 33.647 C 286.642 33.655 285.756 33.795 285.568 33.957 C 285.381 34.12 284.503 34.459 283.617 34.711 C 279.424 35.901 278.842 36.369 276.806 40.183 C 274.998 43.57 278.092 48.702 281.943 48.702 C 282.737 48.702 283.903 48.888 284.533 49.116 L 285.68 49.531 L 284.022 50.337 C 283.11 50.78 281.799 51.223 281.11 51.322 C 277.919 51.777 275.982 52.516 274.358 53.894 L 273.515 54.611 L 274.125 53.178 C 276.422 47.787 275.673 45.007 272.139 45.801 C 271.292 45.992 270.184 46.546 269.677 47.034 C 269.17 47.522 268.272 48.379 267.681 48.938 C 267.09 49.497 266.118 50.526 265.52 51.223 C 264.923 51.92 263.953 52.689 263.366 52.932 C 262.779 53.176 261.474 54.178 260.466 55.16 C 258.916 56.669 258.308 57.009 256.532 57.356 C 255.377 57.582 254.02 58.052 253.516 58.401 C 252.902 58.828 252.432 58.929 252.084 58.709 C 251.8 58.529 250.479 58.379 249.15 58.376 C 246.487 58.37 246.483 58.368 247.315 57.098 C 248.468 55.339 247.136 51.209 245.417 51.209 C 245.155 51.209 244.942 50.967 244.942 50.671 C 244.942 49.802 243.588 48.702 242.525 48.705 C 241.37 48.71 235.414 52.461 234.147 53.982 C 233.683 54.539 232.863 55.216 232.325 55.487 C 231.786 55.757 231.253 56.235 231.14 56.548 C 231.027 56.861 230.274 57.601 229.467 58.192 C 228.659 58.782 227.581 60.054 227.07 61.017 C 226.559 61.98 225.27 63.591 224.205 64.598 C 223.14 65.604 221.802 66.867 221.232 67.404 C 220.662 67.941 219.585 68.544 218.838 68.745 C 218.092 68.946 217.189 69.434 216.832 69.828 C 216.475 70.223 215.991 70.546 215.757 70.546 C 215.522 70.546 214.402 70.853 213.266 71.227 C 209.15 72.585 206.878 69.998 206.89 63.968 C 206.899 59.035 205.937 56.456 203.36 54.507 C 199.97 51.943 197.091 52.879 191.332 58.413 L 190.184 59.517 L 189.948 58.577 C 189.171 55.481 184.423 56.002 184.423 59.183 C 184.423 59.895 184.284 60.562 184.116 60.667 C 183.947 60.771 183.615 61.868 183.378 63.105 C 183.141 64.342 182.802 65.918 182.625 66.607 C 182.448 67.296 182.235 68.344 182.151 68.935 C 181.741 71.815 180.884 72.94 177.198 75.437 C 176.149 76.148 174.886 77.16 174.39 77.686 C 173.895 78.212 172.968 78.951 172.331 79.327 C 171.694 79.703 171.173 80.138 171.173 80.292 C 171.173 80.447 170.924 80.573 170.619 80.573 C 170.315 80.573 169.308 80.977 168.381 81.471 L 166.697 82.37 L 166.447 79.447 C 166.256 77.209 166.319 76.289 166.716 75.522 C 168.506 72.06 165.31 68.41 160.609 68.548 C 157.141 68.649 156.507 69.006 151.485 73.684 C 151.013 74.125 150.497 74.485 150.339 74.485 C 150.182 74.485 149.718 74.767 149.309 75.112 C 147.186 76.899 146.505 77.639 145.932 78.782 C 145.586 79.472 145.1 80.278 144.851 80.573 C 144.603 80.868 144.284 81.489 144.143 81.953 C 144.001 82.416 143.499 83.365 143.026 84.062 C 141.799 85.869 141.806 89.042 143.039 90.507 C 143.518 91.077 144.019 91.977 144.153 92.508 C 144.943 95.656 152.366 96.741 155.26 94.131 C 155.667 93.765 156.24 93.465 156.533 93.465 C 156.827 93.465 157.884 92.603 158.883 91.549 L 160.698 89.634 L 161.549 90.307 C 164.845 92.917 167.871 92.987 172.846 90.57 C 174.893 89.575 176.763 88.449 177.001 88.069 C 177.238 87.688 177.623 87.377 177.856 87.377 C 178.441 87.377 180.482 85.617 180.489 85.107 C 180.497 84.443 183.948 82.722 185.27 82.722 C 186.746 82.722 188.152 81.671 189.061 79.889 C 189.435 79.156 190.236 78.027 190.842 77.378 C 191.447 76.73 191.943 75.822 191.943 75.361 C 191.943 74.9 192.325 74.11 192.792 73.605 C 193.26 73.101 193.84 71.98 194.083 71.114 C 195.054 67.646 196.404 66.434 196.81 68.666 C 197.05 69.984 197.997 72.716 198.829 74.485 C 199.328 75.547 200.903 77.35 201.331 77.35 C 201.497 77.35 202.127 77.912 202.729 78.598 C 203.414 79.378 204.385 79.996 205.315 80.243 C 206.134 80.461 207.054 80.862 207.359 81.134 C 209.299 82.863 212.495 83.075 215.096 81.647 C 216.173 81.056 217.416 80.573 217.859 80.573 C 218.301 80.573 218.976 80.336 219.359 80.047 C 219.741 79.758 220.429 79.516 220.887 79.51 C 221.345 79.504 222.204 79.015 222.795 78.424 C 223.385 77.833 223.973 77.35 224.1 77.35 C 224.228 77.35 225.316 76.375 226.519 75.183 L 228.705 73.015 L 230.641 73.778 C 231.817 74.242 232.969 74.463 233.577 74.341 C 234.929 74.071 239.523 70.358 239.974 69.172 C 240.73 67.184 241.306 66.888 242.567 67.839 C 244.989 69.666 250.975 71.01 253.214 70.229 C 253.844 70.01 254.754 69.83 255.235 69.83 C 255.717 69.83 256.58 69.588 257.152 69.293 C 257.724 68.997 258.66 68.514 259.232 68.218 C 259.804 67.923 260.526 67.681 260.838 67.681 C 261.149 67.681 262.808 66.392 264.524 64.816 C 266.241 63.241 267.76 61.952 267.901 61.952 C 268.424 61.952 271.847 57.509 272.03 56.591 C 272.135 56.067 272.524 55.449 272.895 55.217 C 273.516 54.83 273.541 54.871 273.213 55.735 C 271.031 61.474 282.852 65.885 288.09 61.286 C 288.795 60.668 289.576 60.161 289.826 60.161 C 290.303 60.161 293.532 57.958 296.047 55.916 C 296.861 55.255 297.72 54.208 297.955 53.588 C 298.191 52.969 298.687 51.779 299.058 50.944 C 300.644 47.37 297.623 42.842 292.748 41.485 L 291.316 41.087 L 292.525 40.669 C 293.191 40.44 294.001 39.924 294.326 39.522 C 294.651 39.121 295.36 38.681 295.903 38.545 C 297.042 38.259 298.296 36.431 298.298 35.053 C 298.301 32.468 293.594 31.208 290.421 32.945 Z  M 355.058 39.101 C 354.27 39.29 352.901 39.529 352.014 39.632 C 351.128 39.735 350.25 39.964 350.063 40.142 C 349.876 40.32 349.503 40.466 349.235 40.466 C 348.284 40.466 340.538 44.573 339.839 45.448 C 339.74 45.572 339.176 45.885 338.585 46.146 C 337.995 46.406 337.269 46.843 336.974 47.117 C 336.679 47.391 335.188 48.684 333.662 49.99 C 332.135 51.296 330.886 52.485 330.886 52.632 C 330.886 52.778 330.324 53.445 329.637 54.113 C 328.95 54.78 328.385 55.553 328.383 55.83 C 328.381 56.107 327.98 56.858 327.491 57.498 C 323.755 62.397 325.168 71.611 329.934 73.423 C 330.556 73.659 331.573 74.076 332.194 74.348 C 333.501 74.922 335.552 74.988 337.128 74.508 C 337.733 74.324 338.872 74.005 339.66 73.798 C 340.448 73.592 342.355 72.602 343.899 71.598 C 345.443 70.595 346.744 69.826 346.792 69.891 C 346.839 69.956 347.092 70.573 347.355 71.262 C 347.618 71.952 348.114 72.838 348.457 73.232 C 348.801 73.626 349.586 75.024 350.203 76.339 C 351.301 78.679 354.117 82.005 354.999 82.005 C 355.244 82.005 356.082 82.337 356.863 82.742 C 357.794 83.226 359.02 83.492 360.43 83.517 C 364.09 83.58 364.761 83.466 366.017 82.563 C 366.686 82.082 367.759 81.418 368.402 81.088 C 369.815 80.361 371.352 78.609 371.352 77.725 C 371.352 77.37 371.58 76.891 371.858 76.66 C 372.136 76.429 372.477 75.402 372.616 74.378 C 372.755 73.354 373.059 72.113 373.293 71.62 C 374.236 69.632 373.358 63.232 371.845 61.066 C 371.574 60.678 371.352 59.77 371.352 59.048 C 371.352 57.589 370.987 56.78 369.287 54.467 C 368.65 53.601 368.129 52.707 368.129 52.481 C 368.129 52.04 365.256 47.444 364.424 46.553 C 364.148 46.258 363.823 45.692 363.701 45.296 C 363.411 44.351 359.843 40.465 359.266 40.465 C 359.02 40.465 358.818 40.316 358.818 40.133 C 358.818 38.896 357.464 38.524 355.058 39.101 Z  M 139.302 45.864 C 138.339 46.233 136.079 50.589 136.079 52.076 C 136.079 52.509 135.515 54.008 134.825 55.407 C 134.136 56.806 133.572 58.257 133.572 58.631 C 133.572 59.005 133.25 59.977 132.856 60.793 C 132.462 61.608 132.14 62.669 132.14 63.15 C 132.14 63.631 131.656 65.161 131.065 66.55 C 130.474 67.938 129.991 69.497 129.991 70.013 C 129.991 70.529 129.835 71.242 129.645 71.598 C 129.455 71.953 129.142 73.111 128.951 74.17 C 128.759 75.23 128.344 77.064 128.028 78.245 C 127.373 80.696 127.131 83.27 126.996 89.229 C 126.938 91.802 126.738 93.607 126.475 93.923 C 126.079 94.401 125.917 96.759 126.014 100.627 C 126.063 102.545 126.976 104.185 128.407 104.924 C 128.979 105.219 129.826 105.904 130.288 106.446 C 132.216 108.703 137.009 107.258 139.481 103.675 C 139.875 103.104 140.492 102.386 140.852 102.079 C 141.767 101.3 142.525 99.757 142.525 98.67 C 142.525 98.165 142.717 97.444 142.952 97.067 C 144.168 95.12 141.26 93.65 139.26 95.202 C 138.791 95.566 138.057 96.048 137.63 96.273 L 136.853 96.682 L 136.832 92.119 C 136.821 89.609 136.801 87.153 136.788 86.661 C 136.776 86.168 136.926 84.879 137.122 83.796 C 137.318 82.713 137.58 81.262 137.703 80.573 C 137.826 79.884 138.245 77.571 138.635 75.434 C 139.024 73.296 139.248 71.116 139.132 70.588 C 139.003 70 139.166 69.145 139.552 68.386 C 139.904 67.693 140.204 66.251 140.232 65.124 C 140.261 63.904 140.513 62.772 140.867 62.267 C 141.327 61.61 141.405 60.956 141.228 59.23 C 141.035 57.343 141.11 56.884 141.755 55.999 C 142.705 54.697 143.228 47.502 142.447 46.478 C 141.856 45.703 140.441 45.427 139.302 45.864 Z  M 106.883 48.931 C 106.396 49.648 105.998 50.686 105.998 51.237 C 105.998 51.789 105.855 52.329 105.68 52.437 C 105.505 52.546 105.252 53.069 105.119 53.601 C 104.985 54.132 104.565 55.004 104.184 55.539 C 103.743 56.159 103.491 57.104 103.491 58.146 C 103.491 59.754 102.763 61.481 101.299 63.342 C 100.902 63.847 100.627 64.769 100.627 65.595 C 100.627 66.474 100.334 67.39 99.841 68.057 C 99.233 68.879 99.041 69.672 98.997 71.547 C 98.965 72.881 98.762 74.289 98.546 74.677 C 97.784 76.04 96.688 78.881 96.688 79.489 C 96.688 81.016 94.662 83.756 93.513 83.784 C 93.245 83.791 92.439 84.094 91.723 84.459 C 89.283 85.701 85.768 87.35 84.8 87.706 C 84.269 87.901 83.022 88.632 82.029 89.33 C 81.035 90.028 79.922 90.6 79.556 90.6 C 78.457 90.6 76.514 91.364 75.56 92.17 C 75.067 92.587 74.28 93.144 73.809 93.409 C 73.339 93.674 72.372 94.214 71.661 94.611 C 70.949 95.007 70.19 95.475 69.973 95.65 C 69.757 95.826 68.737 96.129 67.706 96.325 C 66.676 96.52 65.378 97.004 64.822 97.4 C 64.266 97.796 63.564 98.12 63.262 98.12 C 62.96 98.12 61.697 99.006 60.455 100.09 C 59.213 101.173 57.873 102.059 57.478 102.06 C 56.695 102.06 55.796 102.514 51.939 104.856 C 50.541 105.706 49.202 106.713 48.963 107.095 C 48.725 107.476 48.308 107.789 48.038 107.789 C 47.238 107.789 44.786 109.302 44.591 109.915 C 44.442 110.383 41.443 112.642 40.347 113.111 C 39.85 113.324 42.018 110.158 42.734 109.626 C 43.097 109.357 43.948 108.269 44.626 107.209 C 45.304 106.149 46.005 105.282 46.183 105.282 C 46.361 105.282 46.698 104.758 46.932 104.118 C 47.17 103.468 48.129 102.35 49.104 101.585 C 50.116 100.792 50.85 99.926 50.85 99.526 C 50.85 99.147 51.004 98.836 51.192 98.836 C 51.38 98.836 52.11 98.071 52.815 97.135 C 53.519 96.2 54.614 94.855 55.248 94.148 C 55.882 93.441 56.64 92.393 56.931 91.82 C 57.223 91.248 57.916 90.327 58.47 89.775 C 59.025 89.222 59.764 88.302 60.112 87.73 C 60.46 87.157 61.196 86.334 61.747 85.901 C 62.298 85.467 63.016 84.673 63.343 84.136 C 63.669 83.599 64.836 82.426 65.937 81.53 C 67.037 80.634 68.218 79.308 68.563 78.582 C 69.16 77.322 77.384 68.88 80.576 66.249 C 81.412 65.56 82.841 64.384 83.752 63.637 C 84.662 62.889 86.083 61.611 86.909 60.797 C 87.735 59.982 88.751 59.264 89.167 59.201 C 90.578 58.985 91.963 58.032 92.444 56.946 C 92.708 56.351 93.106 55.864 93.329 55.864 C 93.552 55.864 93.929 55.63 94.166 55.345 C 94.618 54.8 97.382 53.357 97.974 53.357 C 98.752 53.357 102.635 51.077 104.172 49.719 C 105.652 48.41 106.774 47.715 107.509 47.65 C 107.651 47.638 107.369 48.214 106.883 48.931 Z  M 382.274 49.773 C 379.908 50.951 379.23 51.644 379.23 52.888 C 379.23 53.343 379.095 53.715 378.929 53.715 C 377.11 53.715 377.582 59.667 379.532 61.297 C 384.783 65.69 392.651 58.156 389.214 52.025 C 387.273 48.563 385.72 48.059 382.274 49.773 Z  M 294.818 69.596 C 293.866 70.068 293.244 71.428 293.312 72.886 C 293.34 73.47 293.192 74.432 292.985 75.022 C 292.777 75.613 292.478 76.902 292.32 77.887 C 292.043 79.608 291.984 79.682 290.779 79.793 C 290.09 79.856 289.372 80.057 289.185 80.24 C 288.998 80.423 288.514 80.573 288.109 80.573 C 286.858 80.573 282.546 82.297 281.414 83.249 C 280.823 83.747 280.12 84.154 279.853 84.154 C 277.565 84.154 280.402 87.974 282.773 88.085 C 284.185 88.151 289.603 88.063 291.137 87.949 L 292.748 87.83 L 292.654 91.253 C 292.509 96.493 293.696 98.478 296.973 98.478 C 299.835 98.478 300.694 94.968 299.995 86.124 C 299.913 85.084 299.969 85.043 301.701 84.857 C 302.686 84.751 303.894 84.442 304.386 84.17 C 304.877 83.898 305.709 83.642 306.234 83.601 C 307.341 83.514 311.991 80.497 313.006 79.207 C 316.236 75.1 310.278 72.972 303.85 75.936 C 303.062 76.3 301.553 76.709 300.497 76.846 L 298.578 77.095 L 298.817 76.006 C 298.984 75.245 298.845 74.524 298.357 73.612 C 297.972 72.895 297.736 72.008 297.831 71.642 C 298.272 69.958 296.506 68.759 294.818 69.596 Z  M 153.679 82.622 C 153.064 83.563 152.558 84.219 152.556 84.079 C 152.549 83.664 154.482 80.594 154.647 80.759 C 154.73 80.842 154.295 81.68 153.679 82.622 Z  M 245.054 81.571 C 244.374 82.003 243.868 83.704 243.868 85.556 C 243.868 86.499 243.689 87.781 243.472 88.405 C 243.187 89.223 243.185 89.672 243.465 90.009 C 243.768 90.375 243.84 100.388 243.549 101.701 C 243.527 101.799 243.094 101.904 242.586 101.933 C 241.386 102.003 239.928 103.387 239.928 104.457 C 239.928 105.419 241.614 108.144 242.214 108.152 C 243.366 108.168 244.651 111.139 243.964 112.198 C 243.406 113.058 243.312 132.893 243.861 133.919 C 245.634 137.231 250.657 136.201 250.683 132.52 C 250.69 131.621 250.705 125.81 250.717 119.606 C 250.746 105.201 250.809 104.924 254.055 104.924 C 254.579 104.924 255.389 104.536 255.869 104.056 C 256.346 103.579 257.077 103.081 257.495 102.948 C 258.541 102.616 261.865 100.558 262.345 99.945 C 262.663 99.539 262.813 99.655 263.125 100.551 C 263.522 101.689 265.494 103.337 268.039 104.659 C 270.523 105.948 276.711 105.538 277.61 104.024 C 277.752 103.784 278.248 103.66 278.711 103.748 C 279.469 103.893 281.743 102.47 282.125 101.611 C 282.19 101.464 282.521 101.343 282.86 101.343 C 284.062 101.343 287.566 96.728 287.545 95.173 C 287.516 93.145 285.005 92.372 283.161 93.823 C 282.66 94.217 282.098 94.539 281.911 94.539 C 281.724 94.539 280.86 95.082 279.991 95.746 C 279.121 96.409 277.849 97.07 277.164 97.213 C 276.478 97.357 275.545 97.71 275.09 97.999 C 273.223 99.182 269.13 98.345 268.818 96.717 C 268.631 95.737 269.053 95.27 270.133 95.261 C 270.496 95.258 271.221 94.954 271.744 94.586 C 272.267 94.218 273.098 93.795 273.59 93.646 C 274.394 93.404 276.813 91.168 276.813 90.667 C 276.813 90.557 277.148 90.11 277.558 89.673 C 278.782 88.371 278.853 86.332 277.72 85.049 C 277.198 84.458 276.537 83.537 276.251 83.001 C 274.842 80.361 270.134 80.747 266.673 83.786 C 265.947 84.423 265.354 85.16 265.354 85.423 C 265.354 86.215 264.633 86.41 263.96 85.801 C 263.612 85.486 263.151 85.228 262.936 85.228 C 262.72 85.228 262.044 84.807 261.432 84.293 C 260.4 83.424 258.673 82.767 256.92 82.575 C 256.516 82.53 256.033 82.403 255.846 82.292 C 255.035 81.81 253.221 81.668 251.477 81.951 C 250.039 82.185 249.502 82.143 249.195 81.773 C 248.765 81.255 245.779 81.109 245.054 81.571 Z  M 256.759 87.835 C 262.793 89.986 262.193 93.626 255.267 96.883 C 254.217 97.377 252.826 98.118 252.177 98.53 C 250.589 99.538 250.621 99.636 250.553 93.494 L 250.492 88.092 L 251.567 87.916 C 252.158 87.819 253.286 87.685 254.073 87.618 C 254.861 87.552 255.506 87.473 255.506 87.442 C 255.506 87.412 256.07 87.589 256.759 87.835 Z  M 335.004 96.664 C 332.985 96.948 331.104 97.94 330.522 99.027 C 330.307 99.429 329.801 99.913 329.397 100.103 C 328.745 100.409 328.328 101.014 327.251 103.218 C 327.084 103.56 326.947 104.164 326.947 104.561 C 326.947 104.958 326.812 105.282 326.646 105.282 C 326.128 105.282 325.515 107.954 325.515 110.206 C 325.515 112.496 325.856 113.546 327.348 115.848 C 328.294 117.306 328.745 117.61 331.603 118.707 C 332.489 119.047 333.642 119.55 334.164 119.824 C 335.517 120.533 342.096 120.518 342.688 119.804 C 342.925 119.519 343.831 119.014 344.701 118.681 C 345.572 118.348 346.285 117.957 346.285 117.812 C 346.285 117.666 346.761 117.452 347.343 117.335 C 348.694 117.065 349.526 115.789 349.603 113.869 C 349.715 111.07 346.244 109.591 344.494 111.692 C 343.534 112.845 337.03 114.024 335.259 113.366 C 334.528 113.094 333.608 112.763 333.214 112.63 C 332.38 112.348 333.952 111.335 336.258 110.67 C 338.307 110.078 343.062 105.1 343.062 103.546 C 343.062 103.145 343.223 102.718 343.42 102.596 C 343.97 102.256 343.845 100.704 343.186 99.699 C 341.597 97.273 338.594 96.159 335.004 96.664 Z  M 317.652 100.408 C 315.926 100.962 311.688 105.256 311.361 106.783 C 310.984 108.536 310.839 108.635 309.914 107.766 C 308.867 106.783 307.318 107.261 306.125 108.937 C 305.305 110.088 305.319 110.644 306.302 116.204 C 306.839 119.237 306.668 119.964 305.417 119.964 C 305.047 119.964 304.423 120.286 304.029 120.68 C 303.23 121.479 302.873 121.546 301.965 121.072 C 301.623 120.894 300.658 120.565 299.821 120.341 C 298.984 120.118 298.299 119.72 298.299 119.457 C 298.299 119.005 296.887 115.756 296.186 114.593 C 296.007 114.297 295.66 113.375 295.415 112.543 C 294.613 109.83 292.687 108.781 290.937 110.105 C 290.555 110.394 289.919 110.649 289.526 110.671 C 288.405 110.734 285.979 112.186 285.617 113.011 C 285.436 113.422 284.966 113.905 284.572 114.086 C 284.177 114.266 283.687 114.736 283.481 115.13 C 283.276 115.524 282.793 116.319 282.407 116.898 C 281.748 117.886 281.312 119.331 280.869 122.001 C 280.574 123.775 282.197 127.018 283.692 127.644 C 284.34 127.915 284.994 128.262 285.145 128.414 C 286.374 129.651 289.881 129.91 291.938 128.917 C 292.753 128.523 293.715 128.201 294.074 128.201 C 294.619 128.201 295.871 126.69 296.246 125.581 C 296.3 125.421 297.579 125.692 299.087 126.185 C 302.02 127.142 305.413 127.161 306.535 126.226 C 307.343 125.553 308.594 125.258 308.854 125.679 C 309.972 127.489 314.432 124.428 314.358 121.901 C 314.346 121.525 314.521 120.412 314.745 119.427 C 314.969 118.442 315.391 116.106 315.683 114.235 C 316.212 110.838 316.993 108.446 317.904 107.431 C 318.169 107.135 318.58 106.627 318.817 106.302 C 319.192 105.787 319.562 105.757 321.68 106.075 C 324.922 106.561 326.707 105.093 324.978 103.364 C 324.682 103.068 324.44 102.666 324.44 102.469 C 324.44 100.684 320.51 99.491 317.652 100.408 Z  M 336.616 103.145 C 336.616 103.348 336.334 103.616 335.989 103.74 C 335.645 103.864 334.935 104.262 334.412 104.624 C 332.95 105.636 332.901 105.277 334.222 103.223 C 334.567 102.686 336.616 102.619 336.616 103.145 Z  M 268.577 112.623 C 268.331 112.919 267.899 113.16 267.616 113.16 C 266.121 113.16 261.047 118.811 260.382 121.218 C 259.03 126.107 260.98 131.605 264.458 132.71 C 264.852 132.836 265.51 133.245 265.92 133.619 C 267.365 134.939 274.553 135.696 275.23 134.6 C 275.336 134.429 275.887 134.288 276.455 134.288 C 277.022 134.288 277.574 134.148 277.68 133.976 C 277.786 133.805 278.319 133.566 278.865 133.446 C 284.328 132.239 282.857 126.628 277.289 127.437 C 273.193 128.033 271.443 128.135 271.23 127.79 C 271.126 127.622 270.607 127.484 270.077 127.483 C 268.094 127.48 266.819 126.28 266.962 124.55 C 267.266 120.87 269.151 119.117 272.86 119.062 C 276.429 119.009 277.792 117.771 276.948 115.348 C 276.236 113.303 269.761 111.195 268.577 112.623 Z  M 40.107 113.635 C 40.107 113.699 39.705 114.13 39.212 114.593 C 38.72 115.055 38.317 115.331 38.317 115.206 C 38.317 115.081 38.67 114.65 39.101 114.249 C 39.859 113.542 40.107 113.391 40.107 113.635 Z  M 291.986 120.394 C 291.716 120.926 291.495 121.611 291.495 121.916 C 291.495 122.251 291.176 122.473 290.689 122.476 C 290.246 122.479 289.656 122.626 289.378 122.802 C 289.101 122.978 288.537 122.997 288.125 122.845 C 286.424 122.215 288.422 118.449 291.316 116.829 C 292.273 116.293 292.758 118.873 291.986 120.394 Z " fill-rule="evenodd" fill="rgb(255,255,255)"/></g></svg>
